<svg width="48" height="48" viewBox="0 0 48 48" fill="none" xmlns="http://www.w3.org/2000/svg">
<rect width="48" height="48" fill="#D8D8D8" fill-opacity="0.01"/>
<path fill-rule="evenodd" clip-rule="evenodd" d="M3.57025 9.888C4.07089 6.6732 6.57985 4.16304 9.79465 3.66216C13.4967 3.0852 18.7011 2.46216 23.911 2.46216C29.1562 2.46216 34.4067 3.0888 38.136 3.66696C41.3542 4.16592 43.8682 6.67704 44.3686 9.89496C44.9458 13.6049 45.5693 18.8215 45.5693 24.0401C45.5693 29.2745 44.9439 34.5108 44.3662 38.2313C43.8667 41.4485 41.3559 43.961 38.1387 44.4614C34.429 45.0386 29.2123 45.6624 23.9935 45.6624C18.7601 45.6624 13.5245 45.0372 9.80353 44.4595C6.58489 43.9598 4.07209 41.4466 3.57265 38.2277C2.99473 34.5038 2.36929 29.2625 2.36929 24.025C2.36929 18.8081 2.99305 13.595 3.57025 9.888Z" fill="#FFB311"/>
<path fill-rule="evenodd" clip-rule="evenodd" d="M17.4067 10.4637C21.2239 10.4637 24.3185 13.7781 24.3185 17.8665C24.3185 21.9549 21.1013 21.7082 17.2841 21.7082C13.4669 21.7082 10.495 21.9549 10.495 17.8665C10.495 13.7781 13.5895 10.4637 17.4067 10.4637Z" fill="white"/>
<path fill-rule="evenodd" clip-rule="evenodd" d="M17.8939 14.213C19.6587 14.213 21.0915 15.6293 21.0915 17.3736C21.0915 19.1181 19.6587 20.5344 17.8939 20.5344C16.1292 20.5344 14.6964 19.1181 14.6964 17.3736C14.6964 15.6293 16.1292 14.213 17.8939 14.213Z" fill="black"/>
<path fill-rule="evenodd" clip-rule="evenodd" d="M30.5625 10.4637C26.7453 10.4637 23.6508 13.7781 23.6508 17.8665C23.6508 21.9549 26.868 21.7082 30.6852 21.7082C34.5024 21.7082 37.4743 21.9549 37.4743 17.8665C37.4743 13.7781 34.3797 10.4637 30.5625 10.4637Z" fill="white"/>
<path fill-rule="evenodd" clip-rule="evenodd" d="M30.0754 14.213C28.3106 14.213 26.8778 15.6293 26.8778 17.3736C26.8778 19.1181 28.3106 20.5344 30.0754 20.5344C31.8401 20.5344 33.2729 19.1181 33.2729 17.3736C33.2729 15.6293 31.8401 14.213 30.0754 14.213Z" fill="black"/>
<path d="M19.1693 27.6235C19.1693 27.6235 20.4226 30.1003 23.963 30.1011C27.3413 30.1018 28.7693 27.6235 28.7693 27.6235" stroke="#732B05" stroke-width="1.25" stroke-linecap="round" stroke-linejoin="round"/>
<path fill-rule="evenodd" clip-rule="evenodd" d="M37.1719 2.57113C35.455 -3.18935 24.6903 1.56409 36.9715 10.787C37.0901 10.877 37.2543 10.8773 37.3731 10.7878C49.6407 1.58569 38.8891 -3.18911 37.1719 2.57113Z" fill="#FF0013"/>
<path fill-rule="evenodd" clip-rule="evenodd" d="M44.3709 15.2069C43.3406 11.7506 36.8817 14.6025 44.2507 20.1365C44.3217 20.1905 44.4201 20.1905 44.4914 20.1367C51.852 14.6155 45.401 11.7506 44.3709 15.2069Z" fill="#FF0013"/>
<path fill-rule="evenodd" clip-rule="evenodd" d="M3.60168 8.73124C2.5716 5.27524 -3.88728 8.12716 3.48144 13.6611C3.55272 13.7151 3.65112 13.7151 3.7224 13.6613C11.083 8.14012 4.632 5.27524 3.60168 8.73124Z" fill="#FF0013"/>
<path fill-rule="evenodd" clip-rule="evenodd" d="M36.7668 17.9923C39.7015 17.9923 42.084 20.375 42.084 23.3095C42.084 26.2442 39.7015 28.627 36.7668 28.627C33.8321 28.627 31.4496 26.2442 31.4496 23.3095C31.4496 20.375 33.8321 17.9923 36.7668 17.9923Z" fill="#FFB311"/>
<path fill-rule="evenodd" clip-rule="evenodd" d="M11.1859 17.9923C14.1206 17.9923 16.5031 20.375 16.5031 23.3095C16.5031 26.2442 14.1206 28.627 11.1859 28.627C8.25119 28.627 5.86847 26.2442 5.86847 23.3095C5.86847 20.375 8.25119 17.9923 11.1859 17.9923Z" fill="#FFB311"/>
</svg>
