<svg width="14" height="22" viewBox="0 0 14 22" fill="none" xmlns="http://www.w3.org/2000/svg">
<path d="M6.98624 11.3752C10.1987 11.3752 12.6739 8.79473 12.6739 5.74028C12.6739 2.58049 10.1987 0 6.98624 0C3.87912 0 1.29863 2.58049 1.29863 5.74028C1.29863 8.79473 3.87912 11.3752 6.98624 11.3752ZM6.98624 3.31777C8.35548 3.31777 9.30342 4.4237 9.30342 5.74028C9.30342 7.05685 8.35548 8.05745 6.98624 8.05745C5.66966 8.05745 4.66907 7.05685 4.66907 5.74028C4.66907 4.4237 5.66966 3.31777 6.98624 3.31777ZM9.25075 16.0622C10.462 15.6936 11.6206 15.2196 12.6212 14.5877C13.3585 14.1664 13.5691 13.1131 13.0952 12.3232C12.6212 11.5332 11.6206 11.3226 10.778 11.8492C8.46081 13.2711 5.51168 13.2711 3.1945 11.8492C2.35189 11.3226 1.40396 11.5332 0.877325 12.3232C0.456021 13.1131 0.614009 14.1664 1.40396 14.5877C2.45722 15.2196 3.56314 15.6936 4.77439 16.0622L1.50928 19.1694C0.877325 19.854 0.877325 20.8546 1.50928 21.4865C1.87792 21.8025 2.29923 21.9605 2.66787 21.9605C3.14184 21.9605 3.56314 21.8025 3.87912 21.4865L6.98624 18.3267L10.1987 21.4865C10.7253 22.1712 11.7786 22.1712 12.4632 21.4865C13.0952 20.8546 13.0952 19.854 12.4632 19.1694L9.25075 16.0622Z" fill="#CCCCCC"/>
</svg>
